<svg id="SvgjsSvg1055" xmlns="http://www.w3.org/2000/svg" version="1.1" xmlns:xlink="http://www.w3.org/1999/xlink" xmlns:svgjs="http://svgjs.com/svgjs" width="17" height="17" viewBox="0 0 17 17"><title>user icon</title><desc>Created with Avocode.</desc><defs id="SvgjsDefs1056"></defs><path id="SvgjsPath1057" d="M1149.05 8150.97L1148.99 8150.95C1148.8700000000001 8150.91 1148.74 8150.86 1148.61 8150.82C1148.4699999999998 8150.7699999999995 1148.33 8150.73 1148.1899999999998 8150.69C1148.07 8150.66 1147.9599999999998 8150.629999999999 1147.84 8150.599999999999C1147.6699999999998 8150.5599999999995 1147.49 8150.5199999999995 1147.31 8150.49C1147.24 8150.48 1147.1799999999998 8150.469999999999 1147.12 8150.46L1147.07 8150.45C1146.97 8150.429999999999 1146.86 8150.42 1146.75 8150.4H1146.72C1146.71 8150.4 1146.71 8150.4 1146.71 8150.4H1146.68C1146.5900000000001 8150.379999999999 1146.5 8150.37 1146.4 8150.36L1146.0800000000002 8150.339999999999C1145.69 8150.319999999999 1145.2800000000002 8150.319999999999 1144.89 8150.339999999999L1144.7700000000002 8150.349999999999L1144.7200000000003 8150.36L1144.5900000000001 8150.37C1144.46 8150.38 1144.3400000000001 8150.39 1144.2200000000003 8150.41H1144.1800000000003C1144.1000000000004 8150.42 1144.0200000000002 8150.43 1143.9400000000003 8150.45C1143.8500000000004 8150.46 1143.7600000000002 8150.48 1143.6700000000003 8150.49C1143.4900000000002 8150.53 1143.3200000000004 8150.5599999999995 1143.1500000000003 8150.599999999999C1143.0200000000002 8150.629999999999 1142.8900000000003 8150.669999999999 1142.7700000000002 8150.7L1142.6800000000003 8150.73C1142.4200000000003 8150.8099999999995 1142.1600000000003 8150.889999999999 1141.9100000000003 8150.99L1141.8400000000004 8151.0199999999995C1138.9000000000003 8152.19 1137.0000000000005 8154.679999999999 1137.0000000000005 8157.389999999999C1137.0000000000005 8157.45 1137.0000000000005 8157.509999999999 1137.0100000000004 8157.57L1137.0300000000004 8158H1153.9700000000005L1153.9900000000005 8157.57C1154.0000000000005 8157.509999999999 1154.0000000000005 8157.45 1154.0000000000005 8157.389999999999C1154.0000000000005 8154.639999999999 1152.0600000000004 8152.119999999999 1149.0500000000004 8150.969999999999ZM1142.23 8151.63L1142.31 8151.6L1142.32 8151.59C1142.53 8151.51 1142.74 8151.4400000000005 1142.96 8151.38L1143.03 8151.36C1143.1399999999999 8151.33 1143.26 8151.29 1143.3799999999999 8151.2699999999995C1143.53 8151.23 1143.6899999999998 8151.2 1143.84 8151.169999999999C1143.9199999999998 8151.149999999999 1144 8151.139999999999 1144.09 8151.129999999999C1144.1499999999999 8151.119999999999 1144.22 8151.109999999999 1144.28 8151.099999999999L1144.32 8151.089999999999C1144.4299999999998 8151.079999999999 1144.55 8151.0599999999995 1144.6699999999998 8151.049999999999L1144.9399999999998 8151.029999999999C1145.2999999999997 8151.009999999998 1145.6399999999999 8151.009999999998 1146.0499999999997 8151.029999999999L1146.3099999999997 8151.049999999999C1146.3799999999997 8151.0599999999995 1146.4499999999998 8151.0599999999995 1146.5199999999998 8151.07L1146.6199999999997 8151.09C1146.7199999999996 8151.1 1146.8199999999997 8151.110000000001 1146.9199999999996 8151.13H1146.9599999999996C1147.0199999999995 8151.14 1147.0799999999995 8151.150000000001 1147.1299999999997 8151.16C1147.2899999999997 8151.19 1147.4499999999996 8151.23 1147.6099999999997 8151.26C1147.7199999999996 8151.29 1147.8199999999997 8151.320000000001 1147.9199999999996 8151.34C1148.0499999999997 8151.38 1148.1799999999996 8151.42 1148.3099999999997 8151.46C1148.4299999999996 8151.5 1148.5499999999997 8151.54 1148.6699999999996 8151.59L1148.6899999999996 8151.6C1151.3799999999997 8152.620000000001 1153.1299999999997 8154.860000000001 1153.1699999999996 8157.31H1137.8299999999997C1137.8699999999997 8154.88 1139.5899999999997 8152.650000000001 1142.2299999999998 8151.63ZM1143.45 8149.46C1143.51 8149.4800000000005 1143.57 8149.5 1143.64 8149.52L1143.7700000000002 8149.56C1143.8300000000002 8149.570000000001 1143.88 8149.59 1143.9300000000003 8149.6C1144.4300000000003 8149.7300000000005 1144.9400000000003 8149.8 1145.4700000000003 8149.8H1145.5100000000002C1145.6900000000003 8149.8 1145.8700000000001 8149.79 1146.0500000000002 8149.78C1146.1100000000001 8149.78 1146.16 8149.7699999999995 1146.2200000000003 8149.759999999999L1146.3500000000004 8149.739999999999C1146.4300000000003 8149.729999999999 1146.5000000000005 8149.729999999999 1146.5800000000004 8149.709999999999C1146.6300000000003 8149.699999999999 1146.6800000000003 8149.689999999999 1146.7300000000005 8149.679999999999L1146.8700000000006 8149.65C1146.9400000000005 8149.639999999999 1147.0100000000007 8149.62 1147.0800000000006 8149.61C1147.1200000000006 8149.589999999999 1147.1700000000005 8149.58 1147.2100000000007 8149.57L1147.3200000000006 8149.53C1147.4000000000005 8149.509999999999 1147.4900000000007 8149.49 1147.5700000000006 8149.46C1147.6000000000006 8149.45 1147.6300000000006 8149.43 1147.6600000000005 8149.42L1147.7000000000005 8149.41C1147.8100000000004 8149.36 1147.9200000000005 8149.32 1148.0400000000004 8149.2699999999995L1148.1100000000004 8149.24C1148.2300000000002 8149.179999999999 1148.3600000000004 8149.12 1148.4800000000002 8149.05C1148.5500000000002 8149.01 1148.6100000000004 8148.97 1148.6700000000003 8148.93L1148.8800000000003 8148.79C1150.1100000000004 8147.95 1150.8100000000004 8146.72 1150.8100000000004 8145.44V8145.4C1150.8100000000004 8142.969999999999 1148.4300000000003 8141 1145.5100000000004 8141C1142.7200000000005 8141 1140.4000000000005 8142.81 1140.2300000000005 8145.12L1140.2200000000005 8145.18C1140.2200000000005 8145.25 1140.2100000000005 8145.33 1140.2100000000005 8145.400000000001C1140.2100000000005 8147.170000000001 1141.4800000000005 8148.76 1143.4500000000005 8149.460000000001ZM1141.05 8145.23L1141.06 8145.169999999999C1141.2 8143.219999999999 1143.1599999999999 8141.69 1145.51 8141.69C1147.98 8141.69 1149.98 8143.349999999999 1149.98 8145.37V8145.41C1149.98 8146.51 1149.38 8147.55 1148.35 8148.26L1148.1499999999999 8148.39C1148.11 8148.42 1148.06 8148.450000000001 1148.0099999999998 8148.4800000000005C1147.9099999999999 8148.540000000001 1147.7999999999997 8148.59 1147.6999999999998 8148.64L1147.6399999999999 8148.67C1147.55 8148.71 1147.4499999999998 8148.74 1147.35 8148.78L1147.24 8148.82C1147.18 8148.84 1147.1200000000001 8148.86 1147.05 8148.88L1146.9099999999999 8148.92C1146.8899999999999 8148.93 1146.86 8148.9400000000005 1146.83 8148.95C1146.78 8148.96 1146.73 8148.97 1146.6799999999998 8148.98L1146.5099999999998 8149.0199999999995C1146.4799999999998 8149.0199999999995 1146.4399999999998 8149.03 1146.4099999999999 8149.04C1146.35 8149.05 1146.3 8149.05 1146.2399999999998 8149.06L1146.0799999999997 8149.080000000001C1146.0499999999997 8149.090000000001 1146.0099999999998 8149.090000000001 1145.9599999999998 8149.090000000001C1145.8299999999997 8149.1100000000015 1145.6899999999998 8149.1100000000015 1145.5499999999997 8149.1100000000015H1145.5099999999998C1145.0499999999997 8149.1100000000015 1144.6099999999997 8149.060000000001 1144.1799999999998 8148.950000000002C1144.1399999999999 8148.940000000001 1144.11 8148.920000000002 1144.07 8148.910000000002L1143.9099999999999 8148.8600000000015C1143.86 8148.850000000001 1143.82 8148.840000000001 1143.7699999999998 8148.8200000000015C1142.1099999999997 8148.240000000002 1141.0399999999997 8146.9000000000015 1141.0399999999997 8145.4000000000015C1141.0399999999997 8145.340000000001 1141.0499999999997 8145.290000000002 1141.0499999999997 8145.230000000001Z " fill="#777777" fill-opacity="1" transform="matrix(1,0,0,1,-1137,-8141)"></path></svg>