<svg id="SvgjsSvg1058" xmlns="http://www.w3.org/2000/svg" version="1.1" xmlns:xlink="http://www.w3.org/1999/xlink" xmlns:svgjs="http://svgjs.com/svgjs" width="20" height="13" viewBox="0 0 20 13"><title>icon mail</title><desc>Created with Avocode.</desc><defs id="SvgjsDefs1059"></defs><path id="SvgjsPath1060" d="M1154.56 8237.55C1154.56 8237.539999999999 1154.56 8237.539999999999 1154.55 8237.529999999999C1154.55 8237.519999999999 1154.54 8237.519999999999 1154.54 8237.519999999999C1154.23 8237.199999999999 1153.8 8236.999999999998 1153.32 8236.999999999998H1136.6799999999998C1136.1999999999998 8236.999999999998 1135.7699999999998 8237.199999999999 1135.4599999999998 8237.519999999999C1135.4599999999998 8237.519999999999 1135.4499999999998 8237.519999999999 1135.4499999999998 8237.529999999999C1135.4399999999998 8237.539999999999 1135.4399999999998 8237.539999999999 1135.4399999999998 8237.55C1135.1699999999998 8237.84 1134.9999999999998 8238.22 1134.9999999999998 8238.65V8248.35C1134.9999999999998 8248.79 1135.1799999999998 8249.18 1135.4599999999998 8249.470000000001C1135.4599999999998 8249.480000000001 1135.4599999999998 8249.490000000002 1135.4699999999998 8249.490000000002C1135.4699999999998 8249.490000000002 1135.4699999999998 8249.490000000002 1135.4799999999998 8249.500000000002C1135.7799999999997 8249.810000000001 1136.2099999999998 8250.000000000002 1136.6799999999998 8250.000000000002H1153.32C1153.79 8250.000000000002 1154.22 8249.810000000001 1154.52 8249.500000000002C1154.53 8249.490000000002 1154.53 8249.490000000002 1154.53 8249.490000000002C1154.54 8249.490000000002 1154.54 8249.480000000001 1154.54 8249.470000000001C1154.82 8249.18 1155 8248.79 1155 8248.35V8238.65C1155 8238.22 1154.83 8237.84 1154.56 8237.55ZM1148.45 8242.99L1154.22 8238.25C1154.27 8238.37 1154.31 8238.5 1154.31 8238.65V8248.35C1154.31 8248.48 1154.28 8248.6 1154.23 8248.720000000001ZM1153.32 8237.68C1153.46 8237.68 1153.6 8237.710000000001 1153.73 8237.77L1145 8244.94L1136.27 8237.77C1136.4 8237.710000000001 1136.54 8237.68 1136.68 8237.68ZM1135.77 8248.72C1135.72 8248.599999999999 1135.69 8248.48 1135.69 8248.349999999999V8238.649999999998C1135.69 8238.499999999998 1135.73 8238.369999999997 1135.78 8238.249999999998L1141.55 8242.989999999998ZM1136.68 8249.32C1136.52 8249.32 1136.3700000000001 8249.279999999999 1136.24 8249.21L1142.08 8243.419999999998L1144.78 8245.639999999998C1144.84 8245.699999999997 1144.92 8245.719999999998 1145 8245.719999999998C1145.08 8245.719999999998 1145.16 8245.699999999997 1145.22 8245.639999999998L1147.92 8243.419999999998L1153.76 8249.21C1153.6299999999999 8249.279999999999 1153.48 8249.32 1153.32 8249.32Z " fill="#777777" fill-opacity="1" transform="matrix(1,0,0,1,-1135,-8237)"></path></svg>