<svg id="SvgjsSvg1025" xmlns="http://www.w3.org/2000/svg" version="1.1" xmlns:xlink="http://www.w3.org/1999/xlink" xmlns:svgjs="http://svgjs.com/svgjs" width="36" height="39" viewBox="0 0 36 39"><title>icon</title><desc>Created with Avocode.</desc><defs id="SvgjsDefs1026"></defs><path id="SvgjsPath1027" d="M563.899 1640.93L562.5 1645.92H558.549C558.045 1645.92 557.637 1646.3200000000002 557.637 1646.8200000000002C557.637 1647.3200000000002 558.045 1647.7200000000003 558.549 1647.7200000000003H563.193C563.231 1647.7200000000003 563.268 1647.7200000000003 563.304 1647.7100000000003C563.314 1647.7100000000003 563.323 1647.7100000000003 563.332 1647.7100000000003C563.3629999999999 1647.7000000000003 563.393 1647.7000000000003 563.422 1647.6900000000003C563.427 1647.6900000000003 563.432 1647.6900000000003 563.437 1647.6900000000003L569.142 1646.1200000000003C569.293 1646.0800000000004 569.431 1646.0000000000005 569.542 1645.8900000000003L587.1 1628.5000000000002C588.298 1627.3100000000002 588.298 1625.3800000000003 587.1 1624.1900000000003L586.034 1623.1400000000003C585.454 1622.5600000000004 584.683 1622.2500000000002 583.862 1622.2500000000002C583.0419999999999 1622.2500000000002 582.27 1622.5600000000002 581.6899999999999 1623.1400000000003L581.0319999999999 1623.7900000000004V1618.8700000000003C581.0319999999999 1617.7800000000004 580.141 1616.9000000000003 579.0459999999999 1616.9000000000003H560.4179999999999C560.1769999999999 1616.9000000000003 559.9449999999999 1616.9900000000002 559.7739999999999 1617.1600000000003L552.2669999999999 1624.6000000000004C552.0959999999999 1624.7700000000004 551.9999999999999 1625.0000000000005 551.9999999999999 1625.2400000000005V1652.1300000000006C551.9999999999999 1653.2200000000005 552.8909999999998 1654.1000000000006 553.9869999999999 1654.1000000000006H579.0459999999998C580.1409999999998 1654.1000000000006 581.0319999999998 1653.2200000000005 581.0319999999998 1652.1300000000006V1639.6200000000006C581.0319999999998 1639.1200000000006 580.6239999999998 1638.7200000000005 580.1209999999999 1638.7200000000005C579.6179999999998 1638.7200000000005 579.2099999999999 1639.1200000000006 579.2099999999999 1639.6200000000006V1652.1300000000006C579.2099999999999 1652.2200000000005 579.136 1652.2900000000006 579.0459999999999 1652.2900000000006H553.987C553.896 1652.2900000000006 553.823 1652.2200000000007 553.823 1652.1300000000006V1626.1400000000006H559.3439999999999C560.439 1626.1400000000006 561.3299999999999 1625.2600000000004 561.3299999999999 1624.1700000000005V1618.7000000000005H579.0459999999999C579.136 1618.7000000000005 579.209 1618.7800000000004 579.209 1618.8700000000006V1625.5400000000006C579.209 1625.5600000000006 579.2109999999999 1625.5700000000006 579.212 1625.5900000000006L573.228 1631.5200000000007H558.549C558.045 1631.5200000000007 557.637 1631.9200000000008 557.637 1632.4200000000008C557.637 1632.9200000000008 558.045 1633.3200000000008 558.549 1633.3200000000008H571.405L565.961 1638.720000000001H558.549C558.045 1638.720000000001 557.637 1639.120000000001 557.637 1639.620000000001C557.637 1640.120000000001 558.045 1640.5200000000011 558.549 1640.5200000000011H564.138L564.1320000000001 1640.530000000001C564.0210000000001 1640.640000000001 563.941 1640.7700000000011 563.8990000000001 1640.9300000000012ZM559.507 1624.17C559.507 1624.26 559.434 1624.3300000000002 559.3439999999999 1624.3300000000002H555.112L559.507 1619.9800000000002ZM582.979 1624.41C583.215 1624.18 583.529 1624.0500000000002 583.8620000000001 1624.0500000000002C584.196 1624.0500000000002 584.5090000000001 1624.1800000000003 584.7450000000001 1624.41L585.8110000000001 1625.47C586.2980000000001 1625.95 586.2980000000001 1626.74 585.8110000000001 1627.22L584.6730000000001 1628.3500000000001L581.8410000000001 1625.5400000000002ZM580.552 1626.82L583.384 1629.62L568.898 1643.9699999999998L566.066 1641.1699999999998ZM565.237 1642.9L567.149 1644.7900000000002L564.502 1645.5200000000002Z " fill="#000000" fill-opacity="1" transform="matrix(1,0,0,1,-552,-1616)"></path></svg>