<svg id="SvgjsSvg1019" xmlns="http://www.w3.org/2000/svg" version="1.1" xmlns:xlink="http://www.w3.org/1999/xlink" xmlns:svgjs="http://svgjs.com/svgjs" width="36" height="36" viewBox="0 0 36 36"><title>icon</title><desc>Created with Avocode.</desc><defs id="SvgjsDefs1020"></defs><path id="SvgjsPath1021" d="M960 1264.74C959.468 1264.74 959.037 1265.17 959.037 1265.7V1268.04C959.037 1268.57 959.4680000000001 1269 960 1269C960.531 1269 960.962 1268.57 960.962 1268.04V1265.7C960.962 1265.17 960.531 1264.74 960 1264.74ZM960 1233C959.468 1233 959.037 1233.43 959.037 1233.96V1236.3C959.037 1236.83 959.4680000000001 1237.26 960 1237.26C960.531 1237.26 960.962 1236.83 960.962 1236.3V1233.96C960.962 1233.43 960.531 1233 960 1233ZM953.13 1262.9C952.669 1262.63 952.081 1262.7900000000002 951.8149999999999 1263.25L950.6479999999999 1265.27C950.382 1265.73 950.54 1266.32 950.9999999999999 1266.59C951.1509999999998 1266.6699999999998 951.3169999999999 1266.72 951.4799999999999 1266.72C951.8129999999999 1266.72 952.1359999999999 1266.54 952.3149999999999 1266.23L953.482 1264.21C953.7479999999999 1263.75 953.5899999999999 1263.16 953.13 1262.9ZM969 1235.41C968.539 1235.14 967.951 1235.3000000000002 967.685 1235.76L966.5179999999999 1237.78C966.252 1238.24 966.41 1238.83 966.8699999999999 1239.1C967.0219999999999 1239.1899999999998 967.1869999999999 1239.23 967.3509999999999 1239.23C967.6829999999999 1239.23 968.0069999999998 1239.05 968.1849999999998 1238.75L969.3519999999999 1236.72C969.6179999999998 1236.26 969.4599999999998 1235.68 968.9999999999999 1235.41ZM948.1 1257.87C947.8340000000001 1257.4099999999999 947.246 1257.25 946.785 1257.52L944.764 1258.68C944.303 1258.95 944.146 1259.54 944.412 1260C944.59 1260.31 944.913 1260.48 945.246 1260.48C945.409 1260.48 945.5749999999999 1260.44 945.726 1260.35L947.748 1259.1799999999998C948.2080000000001 1258.9199999999998 948.3660000000001 1258.33 948.1 1257.87ZM975.588 1242C975.323 1241.54 974.7339999999999 1241.38 974.274 1241.65L972.252 1242.8100000000002C971.7909999999999 1243.0800000000002 971.6339999999999 1243.67 971.9 1244.13C972.078 1244.44 972.401 1244.6100000000001 972.7339999999999 1244.6100000000001C972.8969999999999 1244.6100000000001 973.0629999999999 1244.5700000000002 973.2139999999999 1244.48L975.236 1243.31C975.696 1243.05 975.854 1242.46 975.588 1242ZM945.297 1250.04H942.962C942.431 1250.04 942 1250.47 942 1251C942 1251.53 942.431 1251.96 942.962 1251.96H945.297C945.828 1251.96 946.259 1251.53 946.259 1251C946.259 1250.47 945.828 1250.04 945.297 1250.04ZM977.037 1250.04H974.7030000000001C974.171 1250.04 973.7400000000001 1250.47 973.7400000000001 1251C973.7400000000001 1251.53 974.1710000000002 1251.96 974.7030000000001 1251.96H977.037C977.5690000000001 1251.96 978 1251.53 978 1251C978 1250.47 977.569 1250.04 977.037 1250.04ZM947.748 1242.81L945.726 1241.6499999999999C945.266 1241.3799999999999 944.677 1241.54 944.411 1241.9999999999998C944.146 1242.4599999999998 944.303 1243.0499999999997 944.7639999999999 1243.3099999999997L946.7849999999999 1244.4799999999998C946.9369999999999 1244.5699999999997 947.1019999999999 1244.61 947.2659999999998 1244.61C947.5979999999998 1244.61 947.9219999999998 1244.4399999999998 948.0999999999998 1244.1299999999999C948.3659999999998 1243.6699999999998 948.2079999999997 1243.08 947.7479999999998 1242.81ZM975.236 1258.68L973.2139999999999 1257.52C972.7539999999999 1257.25 972.165 1257.41 971.8989999999999 1257.87C971.6329999999999 1258.33 971.7909999999999 1258.9199999999998 972.2519999999998 1259.1799999999998L974.2729999999998 1260.35C974.4249999999998 1260.4399999999998 974.5899999999998 1260.48 974.7539999999998 1260.48C975.0859999999998 1260.48 975.4099999999997 1260.31 975.5879999999997 1260C975.8539999999997 1259.54 975.6959999999997 1258.95 975.2359999999998 1258.68ZM953.482 1237.78L952.3149999999999 1235.76C952.049 1235.3 951.4599999999999 1235.14 950.9999999999999 1235.41C950.5399999999998 1235.68 950.3819999999998 1236.26 950.6479999999999 1236.72L951.8149999999999 1238.75C951.9929999999999 1239.06 952.3169999999999 1239.23 952.6489999999999 1239.23C952.8129999999999 1239.23 952.9779999999998 1239.19 953.1299999999999 1239.1C953.5899999999999 1238.83 953.7479999999999 1238.24 953.4819999999999 1237.78ZM969.352 1265.27L968.185 1263.25C967.919 1262.79 967.3299999999999 1262.63 966.8699999999999 1262.9C966.4099999999999 1263.16 966.2519999999998 1263.75 966.5179999999999 1264.21L967.685 1266.23C967.8629999999999 1266.54 968.1869999999999 1266.72 968.5189999999999 1266.72C968.6829999999999 1266.72 968.8479999999998 1266.67 968.9999999999999 1266.59C969.4599999999999 1266.32 969.6179999999999 1265.73 969.3519999999999 1265.27ZM960 1233C959.468 1233 959.037 1233.43 959.037 1233.96V1236.3C959.037 1236.83 959.4680000000001 1237.26 960 1237.26C960.531 1237.26 960.962 1236.83 960.962 1236.3V1233.96C960.962 1233.43 960.531 1233 960 1233ZM960 1264.74C959.468 1264.74 959.037 1265.17 959.037 1265.7V1268.04C959.037 1268.57 959.4680000000001 1269 960 1269C960.531 1269 960.962 1268.57 960.962 1268.04V1265.7C960.962 1265.17 960.531 1264.74 960 1264.74ZM960 1240.36C954.136 1240.36 949.366 1245.1299999999999 949.366 1251C949.366 1256.86 954.136 1261.63 960 1261.63C965.863 1261.63 970.634 1256.8600000000001 970.634 1251C970.634 1245.13 965.863 1240.36 960 1240.36ZM960 1259.71C955.198 1259.71 951.291 1255.8 951.291 1251C951.291 1246.2 955.1980000000001 1242.29 960 1242.29C964.802 1242.29 968.709 1246.2 968.709 1251C968.709 1255.8 964.8019999999999 1259.71 960 1259.71Z " fill="#000000" fill-opacity="1" transform="matrix(1,0,0,1,-942,-1233)"></path></svg>