<svg id="SvgjsSvg1016" xmlns="http://www.w3.org/2000/svg" version="1.1" xmlns:xlink="http://www.w3.org/1999/xlink" xmlns:svgjs="http://svgjs.com/svgjs" width="36" height="36" viewBox="0 0 36 36"><title>icon</title><desc>Created with Avocode.</desc><defs id="SvgjsDefs1017"></defs><path id="SvgjsPath1018" d="M570 1237.97C564.548 1237.97 560.61 1242.03 559.986 1246.4C559.597 1249.3100000000002 560.537 1252.14 562.491 1254.2900000000002C564.211 1256.13 565.151 1258.5800000000002 565.151 1261.1100000000001L565.144 1265.0900000000001C565.144 1266.7 566.473 1268.0000000000002 568.119 1268.0000000000002H571.9540000000001C573.6 1268.0000000000002 574.9300000000001 1266.7000000000003 574.9300000000001 1265.0900000000001L574.937 1261.1100000000001C574.937 1258.5100000000002 575.797 1256.13 577.442 1254.44C579.242 1252.6100000000001 580.183 1250.23 580.183 1247.78C580.175 1242.34 575.554 1237.97 570 1237.97ZM573.438 1265.09C573.438 1265.85 572.814 1266.47 572.028 1266.47H568.193C567.406 1266.47 566.782 1265.8600000000001 566.782 1265.09V1263.33H573.431V1265.09ZM576.34 1253.37C574.3860000000001 1255.36 573.365 1258.12 573.365 1261.11V1261.8H566.716V1261.11C566.716 1258.27 565.54 1255.4399999999998 563.586 1253.3C561.867 1251.46 561.162 1249.09 561.47 1246.6299999999999C562.0210000000001 1242.9599999999998 565.437 1239.51 570 1239.51C574.775 1239.51 578.611 1243.26 578.611 1247.78C578.611 1249.84 577.824 1251.83 576.34 1253.37ZM569 1236V1232H571V1236ZM579.485 1239.08L580.5790000000001 1240.1799999999998L583.2610000000001 1237.6L582.1590000000001 1236.5ZM584 1250V1249H588V1250ZM552 1250V1249H556V1250ZM557.811 1236.49L556.7090000000001 1237.59L559.3910000000001 1240.1699999999998L560.4860000000001 1239.07Z " fill="#000000" fill-opacity="1" transform="matrix(1,0,0,1,-552,-1232)"></path></svg>