<svg id="SvgjsSvg1022" xmlns="http://www.w3.org/2000/svg" version="1.1" xmlns:xlink="http://www.w3.org/1999/xlink" xmlns:svgjs="http://svgjs.com/svgjs" width="43" height="36" viewBox="0 0 43 36"><title>icon</title><desc>Created with Avocode.</desc><defs id="SvgjsDefs1023"></defs><path id="SvgjsPath1024" d="M1370.5 1236C1369.85 1235.35 1368.99 1235 1368.08 1235C1367.1699999999998 1235 1366.31 1235.35 1365.6599999999999 1236L1364.87 1236.79L1348.4199999999998 1253.1599999999999C1348.4199999999998 1253.1699999999998 1348.4199999999998 1253.1699999999998 1348.4199999999998 1253.1699999999998C1348.4099999999999 1253.1699999999998 1348.4099999999999 1253.1799999999998 1348.3999999999999 1253.1799999999998C1348.3799999999999 1253.1999999999998 1348.36 1253.2199999999998 1348.35 1253.2499999999998C1348.34 1253.2499999999998 1348.34 1253.2599999999998 1348.33 1253.2699999999998C1348.31 1253.2899999999997 1348.3 1253.3099999999997 1348.29 1253.3299999999997C1348.28 1253.3399999999997 1348.28 1253.3499999999997 1348.27 1253.3599999999997C1348.24 1253.4199999999996 1348.21 1253.4799999999996 1348.2 1253.5499999999997C1348.2 1253.5499999999997 1348.19 1253.5499999999997 1348.19 1253.5599999999997L1347.15 1257.6599999999996H1344.96C1344.48 1257.6599999999996 1344.1000000000001 1258.0399999999997 1344.1000000000001 1258.5199999999995V1260.5699999999995H1342.0400000000002C1341.5600000000002 1260.5699999999995 1341.1800000000003 1260.9499999999996 1341.1800000000003 1261.4199999999994V1263.4799999999993H1339.1200000000003C1338.6400000000003 1263.4799999999993 1338.2600000000004 1263.8599999999994 1338.2600000000004 1264.3299999999992V1266.3899999999992H1337.0500000000004V1264.3299999999992C1337.0500000000004 1263.8599999999992 1336.6700000000003 1263.4799999999993 1336.2000000000005 1263.4799999999993H1334.1300000000006V1261.4199999999994C1334.1300000000006 1260.9499999999994 1333.7500000000005 1260.5699999999995 1333.2800000000007 1260.5699999999995H1330.3600000000006C1329.8800000000006 1260.5699999999995 1329.5000000000007 1260.9499999999996 1329.5000000000007 1261.4199999999994V1264.3299999999995C1329.5000000000007 1264.7999999999995 1329.8800000000008 1265.1799999999994 1330.3600000000006 1265.1799999999994H1332.4200000000005V1267.2399999999993C1332.4200000000005 1267.7099999999994 1332.8000000000006 1268.0899999999992 1333.2800000000004 1268.0899999999992H1335.3400000000004V1270.1499999999992C1335.3400000000004 1270.6199999999992 1335.7200000000005 1270.999999999999 1336.2000000000003 1270.999999999999H1339.1200000000003C1339.5900000000004 1270.999999999999 1339.9700000000003 1270.619999999999 1339.9700000000003 1270.1499999999992V1268.0899999999992H1342.0400000000002C1342.5100000000002 1268.0899999999992 1342.89 1267.7099999999991 1342.89 1267.2399999999993V1265.1799999999994H1344.96C1345.43 1265.1799999999994 1345.81 1264.7999999999993 1345.81 1264.3299999999995V1262.2799999999995H1347.8799999999999C1348.35 1262.2799999999995 1348.7299999999998 1261.8999999999994 1348.7299999999998 1261.4199999999996V1259.2399999999996L1352.86 1258.1999999999996H1352.87C1352.8999999999999 1258.1899999999996 1352.9299999999998 1258.1799999999996 1352.9499999999998 1258.1699999999996C1352.9599999999998 1258.1699999999996 1352.9699999999998 1258.1699999999996 1352.9699999999998 1258.1599999999996C1352.9999999999998 1258.1499999999996 1353.0299999999997 1258.1399999999996 1353.0599999999997 1258.1199999999997C1353.0699999999997 1258.1199999999997 1353.0799999999997 1258.1099999999997 1353.0799999999997 1258.1099999999997C1353.1099999999997 1258.0899999999997 1353.1299999999997 1258.0799999999997 1353.1499999999996 1258.0699999999997C1353.1599999999996 1258.0599999999997 1353.1699999999996 1258.0499999999997 1353.1699999999996 1258.0499999999997C1353.1999999999996 1258.0299999999997 1353.2199999999996 1258.0099999999998 1353.2399999999996 1257.9899999999998L1353.2499999999995 1257.9799999999998L1369.6999999999996 1241.5999999999997L1370.4999999999995 1240.8099999999997C1371.1399999999996 1240.1699999999996 1371.4999999999995 1239.3099999999997 1371.4999999999995 1238.3999999999996C1371.4999999999995 1237.4899999999996 1371.1399999999996 1236.6399999999996 1370.4999999999995 1235.9999999999995ZM1332.42 1263.48H1331.21V1262.28H1332.42ZM1334.13 1266.39V1265.18H1335.3400000000001V1266.39ZM1338.26 1269.29H1337.05V1268.09H1338.26ZM1341.18 1266.39H1339.97V1265.18H1341.18ZM1344.1 1263.48H1342.8899999999999V1262.28H1344.1ZM1347.02 1260.57H1345.81V1259.37H1347.02ZM1348.98 1257.42L1349.48 1255.43L1350.98 1256.92ZM1352.65 1256.17L1350.24 1253.77L1365.47 1238.6L1367.88 1241ZM1369.28 1239.6L1369.09 1239.79L1366.6799999999998 1237.3899999999999L1366.8799999999999 1237.1999999999998C1367.1999999999998 1236.8799999999999 1367.6299999999999 1236.6999999999998 1368.08 1236.6999999999998C1368.54 1236.6999999999998 1368.96 1236.8799999999999 1369.29 1237.1999999999998C1369.61 1237.5199999999998 1369.79 1237.9499999999998 1369.79 1238.3999999999999C1369.79 1238.85 1369.61 1239.28 1369.28 1239.6Z " fill="#000000" fill-opacity="1" transform="matrix(1,0,0,1,-1329,-1235)"></path></svg>