<svg id="SvgjsSvg1028" xmlns="http://www.w3.org/2000/svg" version="1.1" xmlns:xlink="http://www.w3.org/1999/xlink" xmlns:svgjs="http://svgjs.com/svgjs" width="36" height="33" viewBox="0 0 36 33"><title>icon</title><desc>Created with Avocode.</desc><defs id="SvgjsDefs1029"></defs><path id="SvgjsPath1030" d="M973.56 1619.3H946.4399999999999C943.996 1619.3 941.9999999999999 1621.29 941.9999999999999 1623.75V1640.98C941.9999999999999 1643.43 943.9879999999999 1645.43 946.4399999999999 1645.43H958.991V1649.68H952.734C952.173 1649.68 951.725 1650.13 951.725 1650.69C951.725 1651.25 952.173 1651.7 952.734 1651.7H967.2660000000001C967.826 1651.7 968.2750000000001 1651.25 968.2750000000001 1650.69C968.2750000000001 1650.13 967.8260000000001 1649.68 967.2660000000001 1649.68H961.0090000000001V1645.43H973.5600000000002C976.0040000000001 1645.43 978.0000000000002 1643.44 978.0000000000002 1640.98V1623.75C978.0000000000002 1621.29 976.0120000000002 1619.3 973.5600000000002 1619.3ZM946.44 1621.32H973.567C974.898 1621.32 975.989 1622.4099999999999 975.989 1623.75V1638.15H944.018V1623.75C944.018 1622.41 945.102 1621.32 946.44 1621.32ZM973.56 1643.41H946.4399999999999C945.1099999999999 1643.41 944.0179999999999 1642.3200000000002 944.0179999999999 1640.98V1640.17H975.982V1640.98C975.982 1642.31 974.898 1643.41 973.56 1643.41Z " fill="#000000" fill-opacity="1" transform="matrix(1,0,0,1,-942,-1619)"></path></svg>