<svg id="SvgjsSvg1031" xmlns="http://www.w3.org/2000/svg" version="1.1" xmlns:xlink="http://www.w3.org/1999/xlink" xmlns:svgjs="http://svgjs.com/svgjs" width="35" height="41" viewBox="0 0 35 41"><title>icon</title><desc>Created with Avocode.</desc><defs id="SvgjsDefs1032"></defs><path id="SvgjsPath1033" d="M1367.81 1636.37L1364.08 1625.9599999999998C1363.98 1625.6899999999998 1363.76 1625.4999999999998 1363.49 1625.4299999999998C1363.23 1625.37 1362.94 1625.4599999999998 1362.75 1625.6599999999999L1354.8 1633.7699999999998C1353.75 1632.8699999999997 1352.53 1632.1399999999996 1351.27 1631.6399999999996C1354.1299999999999 1630.3399999999997 1356.1399999999999 1627.4199999999996 1356.1399999999999 1624.0199999999998C1356.1399999999999 1619.4299999999998 1352.4799999999998 1615.6999999999998 1347.9799999999998 1615.6999999999998C1343.4799999999998 1615.6999999999998 1339.8199999999997 1619.4299999999998 1339.8199999999997 1624.0199999999998C1339.8199999999997 1627.2199999999998 1341.5899999999997 1629.9999999999998 1344.1899999999996 1631.3899999999996C1342.4699999999996 1631.9799999999996 1340.9099999999996 1633.0299999999997 1339.6199999999997 1634.4899999999996C1339.3999999999996 1634.4599999999996 1339.1799999999996 1634.4399999999996 1338.9599999999996 1634.4399999999996C1337.5099999999995 1634.4399999999996 1336.1499999999996 1635.0199999999995 1335.1199999999997 1636.0699999999997L1334.6899999999996 1636.5099999999998C1333.6599999999996 1637.5599999999997 1333.0999999999997 1638.9499999999998 1333.0999999999997 1640.4299999999998C1333.0999999999997 1641.9099999999999 1333.6699999999996 1643.2999999999997 1334.6899999999996 1644.34L1343.3999999999996 1653.23L1343.8299999999997 1653.67C1344.8599999999997 1654.72 1346.2199999999998 1655.3000000000002 1347.6699999999996 1655.3000000000002C1349.1199999999997 1655.3000000000002 1350.4899999999996 1654.7200000000003 1351.5099999999995 1653.67L1351.9499999999996 1653.23C1351.9499999999996 1653.23 1351.9599999999996 1653.22 1351.9599999999996 1653.21L1367.6299999999997 1637.23C1367.8499999999997 1637.01 1367.9199999999996 1636.67 1367.8099999999997 1636.3700000000001ZM1353.65 1634.94L1348.48 1640.21V1632.8500000000001H1349.72C1351.1100000000001 1633.2500000000002 1352.5 1633.9800000000002 1353.65 1634.94ZM1347.98 1617.35C1351.58 1617.35 1354.52 1620.34 1354.52 1624.02C1354.52 1624.26 1354.5 1624.5 1354.48 1624.74L1350.49 1620.73C1350.27 1620.51 1349.94 1620.43 1349.65 1620.54L1341.45 1623.56C1341.68 1620.1 1344.52 1617.35 1347.98 1617.35ZM1341.55 1625.28L1349.72 1622.27L1354.02 1626.59C1353.03 1629 1350.69 1630.6999999999998 1347.98 1630.6999999999998C1344.79 1630.6999999999998 1342.13 1628.36 1341.55 1625.2799999999997ZM1345.12 1632.83C1345.1799999999998 1632.84 1345.2399999999998 1632.85 1345.3 1632.85H1346.87V1640.2099999999998L1342.8 1636.0699999999997C1342.3799999999999 1635.6299999999997 1341.8899999999999 1635.2799999999997 1341.37 1635.0199999999998C1342.4599999999998 1633.9599999999998 1343.7399999999998 1633.2199999999998 1345.12 1632.8299999999997ZM1350.37 1652.51C1349.6499999999999 1653.24 1348.6899999999998 1653.65 1347.6699999999998 1653.65C1346.6499999999999 1653.65 1345.6999999999998 1653.24 1344.9799999999998 1652.51L1344.5399999999997 1652.06L1335.8299999999997 1643.1699999999998C1335.1099999999997 1642.4399999999998 1334.7199999999998 1641.4699999999998 1334.7199999999998 1640.4299999999998C1334.7199999999998 1639.3899999999999 1335.11 1638.4099999999999 1335.8299999999997 1637.6799999999998L1336.2699999999998 1637.2299999999998C1336.9899999999998 1636.4999999999998 1337.9399999999998 1636.0899999999997 1338.9599999999998 1636.0899999999997C1339.9799999999998 1636.0899999999997 1340.9399999999998 1636.4999999999998 1341.6599999999999 1637.2299999999998L1347.1 1642.7899999999997C1347.3899999999999 1643.0799999999997 1347.85 1643.1099999999997 1348.1599999999999 1642.8599999999997C1348.1699999999998 1642.8499999999997 1348.1799999999998 1642.8499999999997 1348.1799999999998 1642.8399999999997C1348.1899999999998 1642.8299999999997 1348.1999999999998 1642.8299999999997 1348.2099999999998 1642.8199999999997C1348.2199999999998 1642.8099999999997 1348.2299999999998 1642.7999999999997 1348.2399999999998 1642.7899999999997L1362.9999999999998 1627.7399999999998L1366.1199999999997 1636.4399999999998ZM1338.8 1639.33C1338.48 1639 1337.97 1639 1337.6499999999999 1639.33C1337.34 1639.6499999999999 1337.34 1640.1699999999998 1337.6499999999999 1640.49L1340.9399999999998 1643.85C1341.09 1644.01 1341.2999999999997 1644.09 1341.5099999999998 1644.09C1341.7099999999998 1644.09 1341.9199999999998 1644.01 1342.0799999999997 1643.85C1342.3899999999996 1643.52 1342.3999999999996 1643 1342.0799999999997 1642.6799999999998Z " fill="#000000" fill-opacity="1" transform="matrix(1,0,0,1,-1333,-1615)"></path></svg>