<svg id="SvgjsSvg1067" xmlns="http://www.w3.org/2000/svg" version="1.1" xmlns:xlink="http://www.w3.org/1999/xlink" xmlns:svgjs="http://svgjs.com/svgjs" width="26" height="20" viewBox="0 0 26 20"><title>tw</title><desc>Created with Avocode.</desc><defs id="SvgjsDefs1068"></defs><path id="SvgjsPath1069" d="M484.409 8824.37C483.445 8824.95 482.378 8825.36 481.242 8825.59C480.334 8824.61 479.03900000000004 8824 477.606 8824C474.853 8824 472.622 8826.26 472.622 8829.04C472.622 8829.43 472.666 8829.820000000002 472.75100000000003 8830.19C468.61 8829.980000000001 464.93800000000005 8827.970000000001 462.48 8824.92C462.05100000000004 8825.66 461.80600000000004 8826.53 461.80600000000004 8827.45C461.80600000000004 8829.2 462.687 8830.75 464.02200000000005 8831.650000000001C463.20500000000004 8831.62 462.43800000000005 8831.400000000001 461.76500000000004 8831.020000000002V8831.080000000002C461.76500000000004 8833.520000000002 463.48300000000006 8835.560000000001 465.76200000000006 8836.030000000002C465.3450000000001 8836.140000000003 464.90400000000005 8836.200000000003 464.44900000000007 8836.200000000003C464.12800000000004 8836.200000000003 463.8160000000001 8836.170000000002 463.5110000000001 8836.110000000002C464.1450000000001 8838.110000000002 465.98500000000007 8839.570000000002 468.1650000000001 8839.610000000002C466.4600000000001 8840.970000000003 464.31000000000006 8841.770000000002 461.9770000000001 8841.770000000002C461.57400000000007 8841.770000000002 461.1770000000001 8841.750000000002 460.78800000000007 8841.700000000003C462.9940000000001 8843.130000000003 465.6120000000001 8843.970000000003 468.4270000000001 8843.970000000003C477.5930000000001 8843.970000000003 482.6050000000001 8836.280000000002 482.6050000000001 8829.620000000003L482.5880000000001 8828.970000000003C483.56500000000005 8828.260000000004 484.4120000000001 8827.370000000003 485.07900000000006 8826.360000000002C484.18500000000006 8826.760000000002 483.22600000000006 8827.030000000002 482.2180000000001 8827.160000000002C483.24700000000007 8826.530000000002 484.0350000000001 8825.54 484.40900000000005 8824.37Z " fill="#aaaaaa" fill-opacity="1" transform="matrix(1,0,0,1,-460,-8824)"></path></svg>