<svg id="SvgjsSvg1061" xmlns="http://www.w3.org/2000/svg" version="1.1" xmlns:xlink="http://www.w3.org/1999/xlink" xmlns:svgjs="http://svgjs.com/svgjs" width="26" height="20" viewBox="0 0 26 20"><title>g+</title><desc>Created with Avocode.</desc><defs id="SvgjsDefs1062"></defs><path id="SvgjsPath1063" d="M399.449 8834.5V8836.41H397.86V8834.5H396.007V8832.87H397.86V8830.960000000001H399.449V8832.87H401.303V8834.5ZM395.418 8835.98V8832.869999999999H386.356V8835.98H391.885C391.06 8838.68 388.60699999999997 8840.64 385.709 8840.64C382.134 8840.64 379.236 8837.66 379.236 8833.98C379.236 8830.31 382.134 8827.33 385.709 8827.33C387.509 8827.33 389.138 8828.08 390.311 8829.3L392.503 8826.849999999999C390.752 8825.089999999998 388.354 8823.999999999998 385.709 8823.999999999998C380.347 8823.999999999998 376 8828.469999999998 376 8833.979999999998C376 8839.499999999998 380.347 8843.969999999998 385.709 8843.969999999998C390.406 8843.969999999998 394.519 8840.539999999997 395.418 8835.979999999998Z " fill="#aaaaaa" fill-opacity="1" transform="matrix(1,0,0,1,-376,-8824)"></path></svg>