<svg id="SvgjsSvg1064" xmlns="http://www.w3.org/2000/svg" version="1.1" xmlns:xlink="http://www.w3.org/1999/xlink" xmlns:svgjs="http://svgjs.com/svgjs" width="11" height="20" viewBox="0 0 11 20"><title>fb</title><desc>Created with Avocode.</desc><defs id="SvgjsDefs1065"></defs><path id="SvgjsPath1066" d="M435.225 8824H432.797C430.07000000000005 8824 428.307 8825.93 428.307 8828.91V8831.18H425.86600000000004C425.65600000000006 8831.18 425.48500000000007 8831.36 425.48500000000007 8831.59V8834.87C425.48500000000007 8835.09 425.65600000000006 8835.28 425.86600000000004 8835.28H428.307V8843.560000000001C428.307 8843.79 428.478 8843.970000000001 428.689 8843.970000000001H431.87300000000005C432.08400000000006 8843.970000000001 432.25500000000005 8843.79 432.25500000000005 8843.560000000001V8835.28H435.10900000000004C435.32000000000005 8835.28 435.49100000000004 8835.09 435.49100000000004 8834.87L435.492 8831.59C435.492 8831.48 435.451 8831.37 435.38 8831.3C435.308 8831.22 435.211 8831.179999999998 435.11 8831.179999999998H432.255V8829.259999999998C432.255 8828.329999999998 432.462 8827.869999999999 433.589 8827.869999999999H435.224C435.435 8827.869999999999 435.606 8827.679999999998 435.606 8827.46V8824.41C435.606 8824.19 435.435 8824 435.225 8824Z " fill="#aaaaaa" fill-opacity="1" transform="matrix(1,0,0,1,-425,-8824)"></path></svg>