<svg id="SvgjsSvg1070" xmlns="http://www.w3.org/2000/svg" version="1.1" xmlns:xlink="http://www.w3.org/1999/xlink" xmlns:svgjs="http://svgjs.com/svgjs" width="21" height="20" viewBox="0 0 21 20"><title>linkdin</title><desc>Created with Avocode.</desc><defs id="SvgjsDefs1071"></defs><path id="SvgjsPath1072" d="M525 8836.24V8843.97H520.661V8836.76C520.661 8834.95 520.034 8833.710000000001 518.463 8833.710000000001C517.264 8833.710000000001 516.5509999999999 8834.550000000001 516.237 8835.35C516.1229999999999 8835.640000000001 516.093 8836.04 516.093 8836.44V8843.970000000001H511.753C511.753 8843.970000000001 511.812 8831.760000000002 511.753 8830.490000000002H516.093V8832.400000000001C516.084 8832.420000000002 516.073 8832.430000000002 516.064 8832.45H516.093V8832.400000000001C516.669 8831.490000000002 517.699 8830.180000000002 520.0039999999999 8830.180000000002C522.8589999999999 8830.180000000002 524.9999999999999 8832.100000000002 524.9999999999999 8836.240000000002ZM509.64 8826.33C509.64 8827.62 508.698 8828.66 507.185 8828.66H507.156C505.701 8828.66 504.757 8827.619999999999 504.757 8826.33C504.757 8825 505.729 8824 507.213 8824C508.69800000000004 8824 509.61100000000005 8825 509.64000000000004 8826.33ZM505.015 8843.97H509.354V8830.49H505.015Z " fill="#aaaaaa" fill-opacity="1" transform="matrix(1,0,0,1,-504,-8824)"></path></svg>