<svg id="SvgjsSvg1009" xmlns="http://www.w3.org/2000/svg" version="1.1" xmlns:xlink="http://www.w3.org/1999/xlink" xmlns:svgjs="http://svgjs.com/svgjs" width="19" height="21" viewBox="0 0 19 21"><title>search icon</title><desc>Created with Avocode.</desc><defs id="SvgjsDefs1010"></defs><path id="SvgjsPath1011" d="M1879.7 58.2157L1875.02 53.2649C1876.22 51.809799999999996 1876.8799999999999 49.9794 1876.8799999999999 48.0738C1876.8799999999999 43.6218 1873.32 39.9989 1868.9399999999998 39.9989C1864.5599999999997 39.9989 1860.9999999999998 43.6218 1860.9999999999998 48.0738C1860.9999999999998 52.5269 1864.5599999999997 56.1492 1868.9399999999998 56.1492C1870.59 56.1492 1872.1499999999999 55.6445 1873.4899999999998 54.6877L1878.2099999999998 59.6755C1878.4099999999999 59.8836 1878.6699999999998 59.9989 1878.9599999999998 59.9989C1879.2299999999998 59.9989 1879.4799999999998 59.8944 1879.6699999999998 59.704499999999996C1880.09 59.3017 1880.1 58.634499999999996 1879.6999999999998 58.2157ZM1868.94 42.1056C1872.18 42.1056 1874.81 44.783500000000004 1874.81 48.073800000000006C1874.81 51.364700000000006 1872.1799999999998 54.042500000000004 1868.94 54.042500000000004C1865.7 54.042500000000004 1863.0700000000002 51.364700000000006 1863.0700000000002 48.073800000000006C1863.0700000000002 44.783500000000004 1865.7000000000003 42.1056 1868.94 42.1056Z " fill="#ffffff" fill-opacity="1" transform="matrix(1,0,0,1,-1861,-39)"></path></svg>