<svg id="SvgjsSvg1012" xmlns="http://www.w3.org/2000/svg" version="1.1" xmlns:xlink="http://www.w3.org/1999/xlink" xmlns:svgjs="http://svgjs.com/svgjs" width="22" height="22" viewBox="0 0 22 22"><title> cart icon</title><desc>Created with Avocode.</desc><defs id="SvgjsDefs1013"></defs><path id="SvgjsPath1014" d="M1808.52 56.6947C1807.51 56.6947 1806.68 57.5903 1806.68 58.6903C1806.68 59.7909 1807.51 60.686 1808.52 60.686C1809.54 60.686 1810.37 59.7909 1810.37 58.6903C1810.37 57.5903 1809.54 56.6947 1808.52 56.6947ZM1808.52 59.5726C1808.07 59.5726 1807.71 59.1762 1807.71 58.6898C1807.71 58.2044 1808.07 57.8097 1808.52 57.8097C1808.97 57.8097 1809.34 58.2044 1809.34 58.6898C1809.34 59.1762 1808.97 59.5726 1808.52 59.5726ZM1815 56.6947C1813.98 56.6947 1813.16 57.5903 1813.16 58.6903C1813.16 59.7909 1813.98 60.686 1815 60.686C1816.02 60.686 1816.85 59.7909 1816.85 58.6903C1816.85 57.5903 1816.02 56.6947 1815 56.6947ZM1815 59.5726C1814.55 59.5726 1814.19 59.1762 1814.19 58.6898C1814.19 58.2044 1814.55 57.8097 1815 57.8097C1815.45 57.8097 1815.82 58.2044 1815.82 58.6898C1815.82 59.1762 1815.45 59.5726 1815 59.5726ZM1815.46 46.187H1808.07C1807.78 46.187 1807.55 46.437 1807.55 46.7448C1807.55 47.052099999999996 1807.78 47.3015 1808.07 47.3015H1815.46C1815.74 47.3015 1815.97 47.052099999999996 1815.97 46.7448C1815.97 46.437 1815.74 46.187 1815.46 46.187ZM1815.06 49.08H1808.47C1808.19 49.08 1807.96 49.3304 1807.96 49.637699999999995C1807.96 49.94499999999999 1808.19 50.195499999999996 1808.47 50.195499999999996H1815.06C1815.34 50.195499999999996 1815.57 49.94499999999999 1815.57 49.637699999999995C1815.57 49.3304 1815.34 49.08 1815.06 49.08ZM1820.49 43.7044C1820.29 43.4437 1820 43.2946 1819.69 43.2946H1803.63L1803.3000000000002 41.5929C1803.2300000000002 41.2378 1803.0100000000002 40.9402 1802.7000000000003 40.7954L1800.4400000000003 39.734C1800.1800000000003 39.611200000000004 1799.8700000000003 39.741 1799.7600000000002 40.0231C1799.6500000000003 40.3052 1799.7700000000002 40.6339 1800.0300000000002 40.7562L1802.2900000000002 41.8181L1804.7900000000002 54.9044C1804.89 55.4204 1805.3100000000002 55.793600000000005 1805.8000000000002 55.793600000000005H1818.15C1818.44 55.793600000000005 1818.67 55.544200000000004 1818.67 55.2364C1818.67 54.9286 1818.44 54.680200000000006 1818.15 54.680200000000006H1805.8000000000002L1805.4900000000002 53.087900000000005H1818.2500000000002C1818.7300000000002 53.087900000000005 1819.1600000000003 52.71300000000001 1819.2600000000002 52.198100000000004L1820.7000000000003 44.633300000000006C1820.7600000000002 44.304 1820.6800000000003 43.96560000000001 1820.4900000000002 43.70440000000001ZM1818.25 51.9729H1805.28L1803.84 44.408L1819.6899999999998 44.4086Z " fill="#000000" fill-opacity="1" transform="matrix(1,0,0,1,-1799,-39)"></path><path id="SvgjsPath1015" d="M1808.52 56.6947C1807.51 56.6947 1806.68 57.5903 1806.68 58.6903C1806.68 59.7909 1807.51 60.686 1808.52 60.686C1809.54 60.686 1810.37 59.7909 1810.37 58.6903C1810.37 57.5903 1809.54 56.6947 1808.52 56.6947ZM1808.52 59.5726C1808.07 59.5726 1807.71 59.1762 1807.71 58.6898C1807.71 58.2044 1808.07 57.8097 1808.52 57.8097C1808.97 57.8097 1809.34 58.2044 1809.34 58.6898C1809.34 59.1762 1808.97 59.5726 1808.52 59.5726ZM1815 56.6947C1813.98 56.6947 1813.16 57.5903 1813.16 58.6903C1813.16 59.7909 1813.98 60.686 1815 60.686C1816.02 60.686 1816.85 59.7909 1816.85 58.6903C1816.85 57.5903 1816.02 56.6947 1815 56.6947ZM1815 59.5726C1814.55 59.5726 1814.19 59.1762 1814.19 58.6898C1814.19 58.2044 1814.55 57.8097 1815 57.8097C1815.45 57.8097 1815.82 58.2044 1815.82 58.6898C1815.82 59.1762 1815.45 59.5726 1815 59.5726ZM1815.46 46.187H1808.07C1807.78 46.187 1807.55 46.437 1807.55 46.7448C1807.55 47.052099999999996 1807.78 47.3015 1808.07 47.3015H1815.46C1815.74 47.3015 1815.97 47.052099999999996 1815.97 46.7448C1815.97 46.437 1815.74 46.187 1815.46 46.187ZM1815.06 49.08H1808.47C1808.19 49.08 1807.96 49.3304 1807.96 49.637699999999995C1807.96 49.94499999999999 1808.19 50.195499999999996 1808.47 50.195499999999996H1815.06C1815.34 50.195499999999996 1815.57 49.94499999999999 1815.57 49.637699999999995C1815.57 49.3304 1815.34 49.08 1815.06 49.08ZM1820.49 43.7044C1820.29 43.4437 1820 43.2946 1819.69 43.2946H1803.63L1803.3000000000002 41.5929C1803.2300000000002 41.2378 1803.0100000000002 40.9402 1802.7000000000003 40.7954L1800.4400000000003 39.734C1800.1800000000003 39.611200000000004 1799.8700000000003 39.741 1799.7600000000002 40.0231C1799.6500000000003 40.3052 1799.7700000000002 40.6339 1800.0300000000002 40.7562L1802.2900000000002 41.8181L1804.7900000000002 54.9044C1804.89 55.4204 1805.3100000000002 55.793600000000005 1805.8000000000002 55.793600000000005H1818.15C1818.44 55.793600000000005 1818.67 55.544200000000004 1818.67 55.2364C1818.67 54.9286 1818.44 54.680200000000006 1818.15 54.680200000000006H1805.8000000000002L1805.4900000000002 53.087900000000005H1818.2500000000002C1818.7300000000002 53.087900000000005 1819.1600000000003 52.71300000000001 1819.2600000000002 52.198100000000004L1820.7000000000003 44.633300000000006C1820.7600000000002 44.304 1820.6800000000003 43.96560000000001 1820.4900000000002 43.70440000000001ZM1818.25 51.9729H1805.28L1803.84 44.408L1819.6899999999998 44.4086Z " fill="#ffffff" fill-opacity="1" transform="matrix(1,0,0,1,-1799,-39)"></path></svg>