<svg id="SvgjsSvg1008" xmlns="http://www.w3.org/2000/svg" version="1.1" xmlns:xlink="http://www.w3.org/1999/xlink" xmlns:svgjs="http://svgjs.com/svgjs" width="24" height="24" viewBox="0 0 24 24"><title>Forma 1</title><desc>Created with Avocode.</desc><defs id="SvgjsDefs1009"></defs><path id="SvgjsPath1010" d="M1019.79 3757.04L1018.5699999999999 3758.25C1017.52 3759.29 1015.81 3759.29 1014.76 3758.25C1014.25 3757.74 1013.97 3757.08 1013.97 3756.37C1013.97 3755.66 1014.25 3754.99 1014.76 3754.49L1019.23 3750.06C1020.15 3749.14 1021.9 3747.79 1023.1700000000001 3749.0499999999997C1023.7500000000001 3749.62 1024.69 3749.62 1025.27 3749.0399999999995C1025.85 3748.4599999999996 1025.85 3747.5099999999993 1025.26 3746.9399999999996C1023.1 3744.7899999999995 1019.91 3745.1899999999996 1017.13 3747.95L1012.66 3752.3799999999997C1011.5899999999999 3753.45 1011 3754.8599999999997 1011 3756.3699999999994C1011 3757.8799999999997 1011.59 3759.2899999999995 1012.66 3760.359999999999C1013.77 3761.4499999999994 1015.2199999999999 3761.999999999999 1016.67 3761.999999999999C1018.12 3761.999999999999 1019.5699999999999 3761.449999999999 1020.67 3760.359999999999L1021.89 3759.149999999999C1022.47 3758.5699999999993 1022.47 3757.629999999999 1021.89 3757.0499999999993C1021.31 3756.4699999999993 1020.37 3756.459999999999 1019.79 3757.039999999999ZM1035 3743.8C1035 3745.3100000000004 1034.41 3746.7200000000003 1033.34 3747.79L1028.57 3752.52C1027.09 3753.98 1025.55 3754.72 1024.08 3754.72C1022.8799999999999 3754.72 1021.7399999999999 3754.23 1020.7399999999999 3753.23C1020.1499999999999 3752.66 1020.1499999999999 3751.71 1020.7299999999999 3751.13C1021.31 3750.55 1022.2499999999999 3750.55 1022.8299999999999 3751.12C1023.27 3751.56 1024.29 3752.5699999999997 1026.47 3750.41L1031.24 3745.68C1031.75 3745.18 1032.03 3744.5099999999998 1032.03 3743.7999999999997C1032.03 3743.0899999999997 1031.75 3742.43 1031.24 3741.9199999999996C1030.29 3740.9799999999996 1028.84 3740.5199999999995 1027.72 3741.6299999999997L1026.21 3743.1299999999997C1025.63 3743.7099999999996 1024.69 3743.7 1024.1100000000001 3743.1199999999994C1023.5300000000001 3742.5399999999995 1023.5300000000001 3741.5999999999995 1024.1100000000001 3741.0199999999995L1025.63 3739.5199999999995C1027.7700000000002 3737.3899999999994 1031.0200000000002 3737.5099999999993 1033.3400000000001 3739.8099999999995C1034.41 3740.8799999999997 1035.0000000000002 3742.2899999999995 1035.0000000000002 3743.7999999999993Z " fill="#b0b0b0" fill-opacity="1" transform="matrix(1,0,0,1,-1011,-3738)"></path></svg>