<svg id="SvgjsSvg1049" xmlns="http://www.w3.org/2000/svg" version="1.1" xmlns:xlink="http://www.w3.org/1999/xlink" xmlns:svgjs="http://svgjs.com/svgjs" width="61" height="60" viewBox="0 0 61 60"><title>social market icon</title><desc>Created with Avocode.</desc><defs id="SvgjsDefs1050"></defs><path id="SvgjsPath1051" d="M1348.94 4828.04C1348.94 4824.85 1347.1200000000001 4822.07 1344.46 4820.67C1345.23 4819.75 1345.7 4818.57 1345.7 4817.29C1345.7 4814.37 1343.31 4812 1340.38 4812C1337.46 4812 1335.0700000000002 4814.37 1335.0700000000002 4817.29C1335.0700000000002 4818.61 1335.5700000000002 4819.83 1336.38 4820.76C1333.8100000000002 4822.18 1332.0600000000002 4824.91 1332.0600000000002 4828.04V4832.47H1348.9400000000003ZM1340.38 4814.86C1341.73 4814.86 1342.8200000000002 4815.95 1342.8200000000002 4817.29C1342.8200000000002 4818.63 1341.7300000000002 4819.71 1340.38 4819.71C1339.0400000000002 4819.71 1337.95 4818.63 1337.95 4817.29C1337.95 4815.95 1339.04 4814.86 1340.38 4814.86ZM1334.94 4829.61V4828.04C1334.94 4825.0199999999995 1337.4 4822.57 1340.43 4822.57H1340.5700000000002C1343.6000000000001 4822.57 1346.0600000000002 4825.0199999999995 1346.0600000000002 4828.04V4829.61ZM1322.4 4860.2C1323.17 4859.28 1323.63 4858.099999999999 1323.63 4856.8099999999995C1323.63 4853.9 1321.25 4851.5199999999995 1318.3200000000002 4851.5199999999995C1315.39 4851.5199999999995 1313.0100000000002 4853.9 1313.0100000000002 4856.8099999999995C1313.0100000000002 4858.139999999999 1313.5000000000002 4859.349999999999 1314.3200000000002 4860.28C1311.7500000000002 4861.7 1310.0000000000002 4864.429999999999 1310.0000000000002 4867.5599999999995V4871.999999999999H1326.8700000000001V4867.5599999999995C1326.8700000000001 4864.37 1325.0500000000002 4861.589999999999 1322.4 4860.2ZM1318.32 4854.38C1319.6599999999999 4854.38 1320.76 4855.47 1320.76 4856.81C1320.76 4858.150000000001 1319.66 4859.240000000001 1318.32 4859.240000000001C1316.97 4859.240000000001 1315.8799999999999 4858.150000000001 1315.8799999999999 4856.81C1315.8799999999999 4855.47 1316.9699999999998 4854.38 1318.32 4854.38ZM1324 4869.14H1312.87V4867.56C1312.87 4864.55 1315.34 4862.1 1318.37 4862.1H1318.51C1321.53 4862.1 1324 4864.55 1324 4867.56ZM1366.52 4860.2C1367.3 4859.28 1367.76 4858.099999999999 1367.76 4856.8099999999995C1367.76 4853.9 1365.3799999999999 4851.5199999999995 1362.45 4851.5199999999995C1359.52 4851.5199999999995 1357.14 4853.9 1357.14 4856.8099999999995C1357.14 4858.139999999999 1357.63 4859.349999999999 1358.45 4860.28C1355.8700000000001 4861.7 1354.13 4864.429999999999 1354.13 4867.5599999999995V4871.999999999999H1371V4867.5599999999995C1371 4864.37 1369.18 4861.589999999999 1366.52 4860.2ZM1362.45 4854.38C1363.79 4854.38 1364.89 4855.47 1364.89 4856.81C1364.89 4858.150000000001 1363.7900000000002 4859.240000000001 1362.45 4859.240000000001C1361.1000000000001 4859.240000000001 1360.01 4858.150000000001 1360.01 4856.81C1360.01 4855.47 1361.1 4854.38 1362.45 4854.38ZM1357 4869.14V4867.56C1357 4864.55 1359.47 4862.1 1362.49 4862.1H1362.63C1365.66 4862.1 1368.13 4864.55 1368.13 4867.56V4869.14ZM1341.94 4837.37H1339.06V4846.78L1329.04 4856.75L1331.07 4858.77L1340.5 4849.39L1349.93 4858.77L1351.96 4856.75L1341.94 4846.78Z " fill="#63def6" fill-opacity="1" transform="matrix(1,0,0,1,-1310,-4812)"></path></svg>