<svg id="SvgjsSvg1034" xmlns="http://www.w3.org/2000/svg" version="1.1" xmlns:xlink="http://www.w3.org/1999/xlink" xmlns:svgjs="http://svgjs.com/svgjs" width="60" height="60" viewBox="0 0 60 60"><title>app design icon</title><desc>Created with Avocode.</desc><defs id="SvgjsDefs1035"></defs><path id="SvgjsPath1036" d="M608.099 4431.24L604.7180000000001 4434.58L595.2940000000001 4425.26L598.676 4421.92C599.743 4420.86 601.345 4420.7300000000005 602.249 4421.62L608.394 4427.7C609.297 4428.599999999999 609.165 4430.179999999999 608.099 4431.24ZM593.722 4426.82L603.146 4436.139999999999L580.675 4458.36C580.5709999999999 4458.469999999999 580.285 4458.75 579.8839999999999 4458.849999999999C579.8379999999999 4458.87 579.7899999999998 4458.889999999999 579.7429999999999 4458.91L568.015 4462.599999999999C567.687 4462.709999999999 567.357 4462.639999999999 567.143 4462.429999999999C566.929 4462.219999999999 566.8620000000001 4461.889999999999 566.965 4461.5599999999995L570.7030000000001 4449.969999999999C570.719 4449.919999999999 570.7370000000001 4449.869999999999 570.7590000000001 4449.829999999999C570.8620000000001 4449.429999999999 571.1470000000002 4449.149999999999 571.2510000000001 4449.039999999999L575.474 4444.869999999999H561.211C560.636 4444.869999999999 560.169 4444.409999999999 560.169 4443.839999999999C560.169 4443.2699999999995 560.636 4442.8099999999995 561.211 4442.8099999999995H577.557ZM577.776 4457.65L571.9749999999999 4451.91L570.4189999999999 4456.74L572.8909999999998 4459.19ZM593.36 4430.52C593.027 4430.1900000000005 592.486 4430.1900000000005 592.153 4430.52L574.634 4447.85C574.301 4448.18 574.301 4448.71 574.634 4449.04C574.967 4449.37 575.509 4449.37 575.842 4449.04L593.36 4431.72C593.695 4431.39 593.695 4430.85 593.36 4430.52ZM592.301 4463.51V4450.52L595.7090000000001 4447.150000000001V4463.51C595.7090000000001 4465.9800000000005 593.671 4468 591.166 4468H554.5400000000001C552.0350000000001 4468 549.9970000000001 4465.98 549.9970000000001 4463.51V4416.33C549.9970000000001 4413.85 552.0350000000001 4411.83 554.5400000000001 4411.83H558.7980000000001V4409.12C558.7980000000001 4408.5 559.3070000000001 4408 559.9350000000001 4408C560.562 4408 561.07 4408.5 561.07 4409.12V4411.83H567.6V4409.12C567.6 4408.5 568.109 4408 568.736 4408C569.364 4408 569.872 4408.5 569.872 4409.12V4411.83H575.5509999999999V4409.12C575.5509999999999 4408.5 576.059 4408 576.6869999999999 4408C577.3139999999999 4408 577.8219999999999 4408.5 577.8219999999999 4409.12V4411.83H584.0709999999999V4409.12C584.0709999999999 4408.5 584.579 4408 585.2059999999999 4408C585.834 4408 586.3419999999999 4408.5 586.3419999999999 4409.12V4411.83H591.1689999999999C593.6739999999999 4411.83 595.7119999999999 4413.85 595.7119999999999 4416.33V4420.74L593.4949999999999 4422.929999999999L592.3039999999999 4424.11V4416.33C592.3039999999999 4415.71 591.7949999999998 4415.2 591.1689999999999 4415.2H586.3419999999999V4416.98C586.3419999999999 4417.599999999999 585.8329999999999 4418.11 585.2059999999999 4418.11C584.579 4418.11 584.0709999999999 4417.599999999999 584.0709999999999 4416.98V4415.2H577.824V4416.98C577.824 4417.599999999999 577.3159999999999 4418.11 576.688 4418.11C576.06 4418.11 575.552 4417.599999999999 575.552 4416.98V4415.2H569.874V4416.98C569.874 4417.599999999999 569.365 4418.11 568.7370000000001 4418.11C568.1100000000001 4418.11 567.6020000000001 4417.599999999999 567.6020000000001 4416.98V4415.2H561.0720000000001V4416.98C561.0720000000001 4417.599999999999 560.5630000000001 4418.11 559.9360000000001 4418.11C559.3080000000001 4418.11 558.8000000000002 4417.599999999999 558.8000000000002 4416.98V4415.2H554.5410000000002C553.9140000000002 4415.2 553.4050000000002 4415.71 553.4050000000002 4416.33V4463.51C553.4050000000002 4464.13 553.9150000000002 4464.63 554.5410000000002 4464.63H565.2720000000002C565.8970000000002 4465.12 566.6610000000002 4465.400000000001 567.4820000000002 4465.400000000001C567.8680000000002 4465.400000000001 568.2540000000002 4465.34 568.6290000000002 4465.22L570.4960000000002 4464.63H591.1670000000003C591.7930000000002 4464.63 592.3020000000002 4464.13 592.3020000000002 4463.51ZM584.472 4426.32C584.472 4426.889999999999 584.005 4427.349999999999 583.43 4427.349999999999H561.2109999999999C560.6359999999999 4427.349999999999 560.1689999999999 4426.889999999999 560.1689999999999 4426.32C560.1689999999999 4425.75 560.6359999999999 4425.29 561.2109999999999 4425.29H583.43C584.005 4425.29 584.472 4425.75 584.472 4426.32ZM583.43 4433.6H561.2109999999999C560.6359999999999 4433.6 560.1689999999999 4434.06 560.1689999999999 4434.63C560.1689999999999 4435.2 560.6359999999999 4435.66 561.2109999999999 4435.66H583.43C584.005 4435.66 584.472 4435.2 584.472 4434.63C584.472 4434.06 584.005 4433.6 583.43 4433.6Z " fill="#63def6" fill-opacity="1" transform="matrix(1,0,0,1,-549,-4408)"></path></svg>