<svg id="SvgjsSvg1011" xmlns="http://www.w3.org/2000/svg" version="1.1" xmlns:xlink="http://www.w3.org/1999/xlink" xmlns:svgjs="http://svgjs.com/svgjs" width="65" height="60" viewBox="0 0 65 60"><title>Forma 1</title><desc>Created with Avocode.</desc><defs id="SvgjsDefs1012"></defs><path id="SvgjsPath1013" d="M615 4856.83V4812H550V4856.83H576.141V4867.79H568.9929999999999V4872H596.007V4867.79H588.8589999999999V4856.83ZM554.239 4816.2H610.7610000000001V4843.33H554.239ZM584.62 4867.79H580.38V4856.83H584.62ZM554.239 4852.62V4847.54H610.7610000000001V4852.62ZM582.5 4848.47C581.737 4848.47 581.12 4849.070000000001 581.12 4849.820000000001C581.12 4850.570000000001 581.737 4851.18 582.5 4851.18C583.262 4851.18 583.88 4850.570000000001 583.88 4849.820000000001C583.88 4849.070000000001 583.262 4848.47 582.5 4848.47ZM571.963 4830.46C571.963 4836.28 576.708 4840.99 582.563 4840.99C588.417 4840.99 593.164 4836.28 593.164 4830.46C593.164 4824.65 588.417 4819.94 582.563 4819.94C576.708 4819.94 571.963 4824.65 571.963 4830.46ZM572.78 4830.46C572.78 4829.06 573.0849999999999 4827.72 573.627 4826.51L578.294 4839.21C575.031 4837.63 572.78 4834.31 572.78 4830.46ZM582.563 4840.18C581.603 4840.18 580.675 4840.04 579.799 4839.780000000001L582.735 4831.320000000001L585.743 4839.500000000001C585.7620000000001 4839.540000000001 585.7860000000001 4839.590000000001 585.812 4839.630000000001C584.796 4839.980000000001 583.702 4840.180000000001 582.563 4840.180000000001ZM590.47 4830.28C591.028 4828.9 591.215 4827.79 591.215 4826.8C591.215 4826.45 591.191 4826.110000000001 591.147 4825.8C591.9110000000001 4827.1900000000005 592.345 4828.78 592.345 4830.46C592.345 4834.05 590.39 4837.18 587.482 4838.86ZM588.361 4827.3C588.732 4827.9400000000005 589.168 4828.77 589.168 4829.97C589.168 4830.81 588.919 4831.85 588.423 4833.12L587.447 4836.349999999999L583.9110000000001 4825.91C584.5010000000001 4825.88 585.0300000000001 4825.82 585.0300000000001 4825.82C585.5580000000001 4825.759999999999 585.4950000000001 4824.99 584.969 4825.0199999999995C584.969 4825.0199999999995 583.384 4825.139999999999 582.3610000000001 4825.139999999999C581.3990000000001 4825.139999999999 579.7850000000001 4825.0199999999995 579.7850000000001 4825.0199999999995C579.2570000000001 4824.99 579.196 4825.79 579.7220000000001 4825.82C579.7220000000001 4825.82 580.2220000000001 4825.88 580.7490000000001 4825.91L582.2720000000002 4830.0599999999995L580.1320000000002 4836.429999999999L576.5680000000002 4825.909999999999C577.1590000000002 4825.879999999999 577.6890000000002 4825.819999999999 577.6890000000002 4825.819999999999C578.2170000000002 4825.759999999998 578.1520000000002 4824.989999999999 577.6260000000002 4825.019999999999C577.6260000000002 4825.019999999999 576.0420000000003 4825.1399999999985 575.0180000000003 4825.1399999999985C574.8350000000003 4825.1399999999985 574.6190000000003 4825.1399999999985 574.3890000000002 4825.129999999998C576.1390000000002 4822.489999999998 579.1460000000002 4820.749999999998 582.5630000000002 4820.749999999998C585.1110000000002 4820.749999999998 587.4300000000002 4821.719999999998 589.1690000000002 4823.299999999998C589.1280000000002 4823.299999999998 589.0860000000002 4823.289999999998 589.0440000000002 4823.289999999998C588.0810000000002 4823.289999999998 587.4000000000002 4824.119999999998 587.4000000000002 4825.019999999998C587.4010000000002 4825.819999999998 587.8650000000002 4826.499999999997 588.3610000000002 4827.299999999997Z " fill="#63def6" fill-opacity="1" transform="matrix(1,0,0,1,-550,-4812)"></path></svg>