<svg id="SvgjsSvg1037" xmlns="http://www.w3.org/2000/svg" version="1.1" xmlns:xlink="http://www.w3.org/1999/xlink" xmlns:svgjs="http://svgjs.com/svgjs" width="62" height="61" viewBox="0 0 62 61"><title>web design icon</title><desc>Created with Avocode.</desc><defs id="SvgjsDefs1038"></defs><path id="SvgjsPath1039" d="M968.013 4466.32C966.938 4465.509999999999 966.8240000000001 4464.299999999999 966.8240000000001 4464.299999999999L966.421 4461.669999999999H953.5780000000001L953.1740000000001 4464.299999999999C953.1740000000001 4464.299999999999 953.0620000000001 4465.509999999999 951.9870000000001 4466.32C950.9130000000001 4467.13 950.066 4467.82 950.9130000000001 4467.94C951.7300000000001 4468.049999999999 959.4320000000001 4467.95 960.0000000000001 4467.94C960.5690000000001 4467.95 968.2690000000001 4468.049999999999 969.0860000000001 4467.94C969.9330000000001 4467.82 969.0850000000002 4467.129999999999 968.0130000000001 4466.32ZM945.533 4445.3C948.964 4445.27 949.391 4444.43 950.51 4440.91C952.572 4435.36 961.861 4442.36 956.104 4444.79C950.3480000000001 4447.23 942.1020000000001 4445.33 945.533 4445.3ZM980.714 4408.71C979.0490000000001 4407.33 976.291 4408.01 974.5540000000001 4410.21L956.9510000000001 4435.76C955.2130000000001 4437.96 955.2220000000001 4437.54 956.8860000000001 4438.91C958.551 4440.28 958.1500000000001 4440.38 959.888 4438.17L980.582 4415.17C982.319 4412.97 982.379 4410.08 980.7139999999999 4408.71ZM976.188 4411.76C976.188 4411.76 975.93 4411.46 975.073 4410.76C976.358 4408.610000000001 978.886 4409 978.886 4409C976.4889999999999 4410.45 976.188 4411.76 976.188 4411.76ZM988.52 4417.34H980.779L977.361 4421.14H987.281V4451.54H932.721V4421.14H964.4590000000001L967.0790000000001 4417.34H931.48C930.11 4417.34 929 4418.47 929 4419.87V4456.599999999999C929 4457.999999999999 930.11 4459.139999999999 931.48 4459.139999999999H988.52C989.89 4459.139999999999 991 4457.999999999999 991 4456.599999999999V4419.87C991 4418.47 989.89 4417.34 988.52 4417.34Z " fill="#63def6" fill-opacity="1" transform="matrix(1,0,0,1,-929,-4407)"></path></svg>