<svg id="SvgjsSvg1046" xmlns="http://www.w3.org/2000/svg" version="1.1" xmlns:xlink="http://www.w3.org/1999/xlink" xmlns:svgjs="http://svgjs.com/svgjs" width="60" height="60" viewBox="0 0 60 60"><title>seo icon</title><desc>Created with Avocode.</desc><defs id="SvgjsDefs1047"></defs><path id="SvgjsPath1048" d="M983.333 4812H932.6669999999999C930.093 4812 927.9999999999999 4814.42 927.9999999999999 4817.4C927.9999999999999 4819.83 927.9999999999999 4864.179999999999 927.9999999999999 4866.599999999999C927.9999999999999 4869.579999999999 930.0929999999998 4871.999999999999 932.6669999999999 4871.999999999999H983.3329999999999C985.9059999999998 4871.999999999999 987.9999999999999 4869.579999999999 987.9999999999999 4866.599999999999C987.9999999999999 4864.179999999999 987.9999999999999 4819.829999999999 987.9999999999999 4817.4C987.9999999999999 4814.42 985.9059999999998 4812 983.3329999999999 4812ZM983.333 4867.37H932.6669999999999C932.2989999999999 4867.37 931.9999999999999 4867.03 931.9999999999999 4866.599999999999V4828.15H983.9999999999999V4866.599999999999C983.9999999999999 4867.03 983.7009999999999 4867.37 983.3329999999999 4867.37ZM932 4823.53V4817.4C932 4816.969999999999 932.299 4816.62 932.667 4816.62H983.3330000000001C983.7010000000001 4816.62 984.0000000000001 4816.97 984.0000000000001 4817.4V4823.53ZM936.415 4818.34C937.245 4818.34 937.919 4819.12 937.919 4820.08C937.919 4821.04 937.245 4821.82 936.415 4821.82C935.584 4821.82 934.91 4821.04 934.91 4820.08C934.91 4819.12 935.584 4818.34 936.415 4818.34ZM941.237 4818.34C942.068 4818.34 942.742 4819.12 942.742 4820.08C942.742 4821.04 942.068 4821.82 941.237 4821.82C940.4069999999999 4821.82 939.733 4821.04 939.733 4820.08C939.733 4819.12 940.4069999999999 4818.34 941.237 4818.34ZM946.06 4818.34C946.891 4818.34 947.564 4819.12 947.564 4820.08C947.564 4821.04 946.891 4821.82 946.06 4821.82C945.2289999999999 4821.82 944.5559999999999 4821.04 944.5559999999999 4820.08C944.5559999999999 4819.12 945.2289999999999 4818.34 946.06 4818.34ZM973.136 4851.85L976.016 4855.18C976.7969999999999 4856.08 978.064 4856.08 978.8449999999999 4855.18C979.6259999999999 4854.280000000001 979.6259999999999 4852.81 978.8449999999999 4851.91L975.9639999999999 4848.58C976.843 4846.25 976.462 4843.43 974.8169999999999 4841.53C972.6739999999999 4839.05 969.1859999999999 4839.05 967.0429999999999 4841.53C964.8989999999999 4844.009999999999 964.8989999999999 4848.04 967.0429999999999 4850.5199999999995C968.6819999999999 4852.419999999999 971.1119999999999 4852.87 973.1359999999999 4851.849999999999ZM969.871 4844.8C970.4549999999999 4844.13 971.405 4844.13 971.989 4844.8C972.573 4845.4800000000005 972.573 4846.58 971.989 4847.25C971.989 4847.25 971.989 4847.25 971.988 4847.25C971.4050000000001 4847.93 970.455 4847.93 969.8710000000001 4847.25C969.2870000000001 4846.58 969.2870000000001 4845.48 969.8710000000001 4844.8ZM938.569 4855.86H963.175C964.28 4855.86 965.175 4854.82 965.175 4853.54C965.175 4852.2699999999995 964.28 4851.23 963.175 4851.23H938.569C937.4649999999999 4851.23 936.569 4852.2699999999995 936.569 4853.54C936.569 4854.82 937.4649999999999 4855.86 938.569 4855.86Z " fill="#63def6" fill-opacity="1" transform="matrix(1,0,0,1,-928,-4812)"></path></svg>