<svg id="SvgjsSvg1040" xmlns="http://www.w3.org/2000/svg" version="1.1" xmlns:xlink="http://www.w3.org/1999/xlink" xmlns:svgjs="http://svgjs.com/svgjs" width="73" height="60" viewBox="0 0 73 60"><title>business analylics icon</title><desc>Created with Avocode.</desc><defs id="SvgjsDefs1041"></defs><path id="SvgjsPath1042" d="M1372.35 4408H1324.34C1321.77 4408 1319.6899999999998 4410.11 1319.6899999999998 4412.71V4427.18C1318.4099999999999 4427.4400000000005 1317.2299999999998 4428.1 1316.33 4429.070000000001C1315.1399999999999 4430.35 1314.53 4432.090000000001 1314.6399999999999 4433.85L1314.84 4436.92L1315.3 4444.1C1315.48 4446.820000000001 1316.99 4449.240000000001 1319.35 4450.55C1320.54 4451.21 1321.84 4451.54 1323.1399999999999 4451.54C1324.4399999999998 4451.54 1325.7399999999998 4451.21 1326.9199999999998 4450.55C1327.59 4450.18 1328.1899999999998 4449.72 1328.7099999999998 4449.1900000000005H1372.35C1374.9099999999999 4449.1900000000005 1377 4447.080000000001 1377 4444.4800000000005V4412.71C1377 4410.11 1374.91 4408 1372.35 4408ZM1317.64 4435.22L1317.5400000000002 4433.650000000001C1317.4800000000002 4432.700000000001 1317.8000000000002 4431.790000000001 1318.4500000000003 4431.09C1319.1000000000004 4430.39 1319.9700000000003 4430.01 1320.9200000000003 4430.01H1324.6600000000003L1323.8500000000004 4432.2C1323.6300000000003 4432.54 1322.1100000000004 4434.61 1317.6400000000003 4435.22ZM1328.08 4443.9C1327.97 4445.62 1327.01 4447.139999999999 1325.52 4447.969999999999C1324.03 4448.799999999999 1322.25 4448.799999999999 1320.76 4447.969999999999C1319.27 4447.139999999999 1318.31 4445.619999999999 1318.2 4443.9L1317.8300000000002 4438.16C1321.3700000000001 4437.71 1323.5700000000002 4436.45 1324.8700000000001 4435.349999999999C1325.16 4435.589999999999 1325.5000000000002 4435.8099999999995 1325.89 4436.0199999999995C1326.47 4436.32 1327.3400000000001 4436.629999999999 1328.5200000000002 4436.94ZM1328.74 4433.65L1328.72 4433.94C1327.8500000000001 4433.69 1327.42 4433.5 1327.22 4433.4C1326.93 4433.24 1326.75 4433.11 1326.65 4433.0199999999995L1327.49 4430.7699999999995C1327.61 4430.87 1327.72 4430.969999999999 1327.83 4431.089999999999C1328.47 4431.789999999999 1328.8 4432.699999999999 1328.74 4433.65ZM1372.35 4446.25H1330.54C1330.78 4445.56 1330.93 4444.84 1330.98 4444.1L1330.99 4443.9800000000005H1368.4C1369.2 4443.9800000000005 1369.8500000000001 4443.320000000001 1369.8500000000001 4442.51C1369.8500000000001 4441.7 1369.2 4441.04 1368.4 4441.04H1366.8200000000002V4416.74C1366.8200000000002 4415.929999999999 1366.17 4415.2699999999995 1365.3700000000001 4415.2699999999995H1358.3500000000001C1357.5400000000002 4415.2699999999995 1356.89 4415.929999999999 1356.89 4416.74V4441.04H1355.0800000000002V4430.49C1355.0800000000002 4429.679999999999 1354.43 4429.0199999999995 1353.63 4429.0199999999995H1346.6100000000001C1345.8100000000002 4429.0199999999995 1345.15 4429.679999999999 1345.15 4430.49V4441.04H1343.45V4422.53C1343.45 4421.719999999999 1342.8 4421.0599999999995 1342 4421.0599999999995H1334.98C1334.17 4421.0599999999995 1333.52 4421.719999999999 1333.52 4422.53V4441.04H1331.17L1331.51 4435.89L1331.64 4433.85C1331.74 4432.21 1331.21 4430.58 1330.18 4429.33V4414.76C1330.18 4413.9400000000005 1329.53 4413.280000000001 1328.72 4413.280000000001C1327.92 4413.280000000001 1327.27 4413.9400000000005 1327.27 4414.76V4427.360000000001C1326.66 4427.160000000001 1326.02 4427.06 1325.36 4427.06H1322.6V4412.71C1322.6 4411.74 1323.3799999999999 4410.95 1324.34 4410.95H1372.35C1373.31 4410.95 1374.09 4411.74 1374.09 4412.71V4444.4800000000005C1374.09 4445.450000000001 1373.31 4446.250000000001 1372.35 4446.250000000001ZM1336.43 4441.04V4424.01H1340.54V4441.04ZM1348.06 4441.04V4431.96H1352.1799999999998V4441.04ZM1359.8 4441.04V4418.21H1363.9099999999999V4441.04ZM1342.2 4462.14C1341.32 4457.21 1337.47 4453.280000000001 1332.6100000000001 4452.35C1331.88 4452.21 1331.13 4452.14 1330.39 4452.14H1328.17C1327.78 4452.14 1327.41 4452.3 1327.14 4452.570000000001L1323.14 4456.630000000001L1319.14 4452.570000000001C1318.8700000000001 4452.3 1318.5 4452.14 1318.1100000000001 4452.14H1315.89C1315.15 4452.14 1314.4 4452.21 1313.67 4452.35C1308.8100000000002 4453.280000000001 1304.96 4457.21 1304.0800000000002 4462.14C1303.8200000000002 4463.59 1304.2100000000003 4465.08 1305.14 4466.21C1306.0800000000002 4467.35 1307.45 4468 1308.91 4468H1337.3700000000001C1338.8300000000002 4468 1340.2 4467.35 1341.14 4466.21C1342.0700000000002 4465.08 1342.46 4463.59 1342.2 4462.14ZM1338.9 4464.32C1338.52 4464.79 1337.96 4465.049999999999 1337.3700000000001 4465.049999999999H1308.91C1308.3200000000002 4465.049999999999 1307.76 4464.789999999999 1307.38 4464.32C1307 4463.86 1306.8400000000001 4463.259999999999 1306.94 4462.67C1307.6100000000001 4458.93 1310.53 4455.95 1314.2 4455.25C1314.76 4455.14 1315.3300000000002 4455.09 1315.89 4455.09H1317.51L1322.11 4459.76C1322.6799999999998 4460.33 1323.6 4460.33 1324.1699999999998 4459.76L1328.7699999999998 4455.09H1330.3899999999996C1330.9499999999996 4455.09 1331.5199999999998 4455.14 1332.0799999999997 4455.25C1335.7499999999998 4455.95 1338.6699999999996 4458.93 1339.3399999999997 4462.67C1339.4399999999996 4463.26 1339.2799999999997 4463.86 1338.8999999999996 4464.32ZM1371.33 4412.33C1370.53 4412.33 1369.87 4412.99 1369.87 4413.8099999999995V4419.41C1369.87 4420.22 1370.53 4420.88 1371.33 4420.88C1372.1299999999999 4420.88 1372.78 4420.22 1372.78 4419.41V4413.8099999999995C1372.78 4412.99 1372.1299999999999 4412.33 1371.33 4412.33ZM1371.33 4422.65C1370.53 4422.65 1369.87 4423.3099999999995 1369.87 4424.12V4424.86C1369.87 4425.679999999999 1370.53 4426.339999999999 1371.33 4426.339999999999C1372.1299999999999 4426.339999999999 1372.78 4425.679999999999 1372.78 4424.86V4424.12C1372.78 4423.3099999999995 1372.1299999999999 4422.65 1371.33 4422.65Z " fill="#63def6" fill-opacity="1" transform="matrix(1,0,0,1,-1304,-4408)"></path></svg>